<mxfile host="app.diagrams.net" modified="2021-09-20T09:43:27.400Z" agent="5.0 (Macintosh)" etag="DegVNM3Dh8MKzM6FgDZe" version="15.1.4" type="github">
  <diagram name="Page-1" id="c4acf3e9-155e-7222-9cf6-157b1a14988f">
    <mxGraphModel dx="2129" dy="1831" grid="1" gridSize="10" guides="1" tooltips="1" connect="1" arrows="1" fold="1" page="1" pageScale="1" pageWidth="850" pageHeight="1100" background="#ffffff" math="0" shadow="0">
      <root>
        <mxCell id="0" />
        <mxCell id="1" parent="0" />
        <mxCell id="17acba5748e5396b-1" value="&lt;b&gt;&lt;font style=&quot;font-size: 12px&quot;&gt;SimplifiedBPMN&lt;/font&gt;&lt;/b&gt;" style="shape=umlFrame;whiteSpace=wrap;html=1;rounded=0;shadow=0;comic=0;labelBackgroundColor=none;strokeWidth=1;fontFamily=Verdana;fontSize=10;align=center;width=170;height=30;" parent="1" vertex="1">
          <mxGeometry x="-820" y="-980" width="370" height="300" as="geometry" />
        </mxCell>
        <mxCell id="EUPt2hbITshMY0ZR5973-1" value="&lt;font style=&quot;font-size: 12px&quot;&gt;&lt;b&gt;BPMNElement&lt;/b&gt;&lt;/font&gt;" style="swimlane;html=1;fontStyle=0;childLayout=stackLayout;horizontal=1;startSize=26;fillColor=#f5f5f5;horizontalStack=0;resizeParent=1;resizeLast=0;collapsible=1;marginBottom=0;swimlaneFillColor=#ffffff;rounded=0;shadow=0;comic=0;labelBackgroundColor=none;strokeWidth=1;fontFamily=Verdana;fontSize=10;align=center;strokeColor=#666666;fontColor=#333333;" parent="1" vertex="1">
          <mxGeometry x="-693" y="-916" width="126" height="70" as="geometry" />
        </mxCell>
        <mxCell id="EUPt2hbITshMY0ZR5973-2" value="+ name: String" style="text;html=1;strokeColor=none;fillColor=none;align=left;verticalAlign=top;spacingLeft=4;spacingRight=4;whiteSpace=wrap;overflow=hidden;rotatable=0;points=[[0,0.5],[1,0.5]];portConstraint=eastwest;fontSize=11;" parent="EUPt2hbITshMY0ZR5973-1" vertex="1">
          <mxGeometry y="26" width="126" height="18" as="geometry" />
        </mxCell>
        <mxCell id="EUPt2hbITshMY0ZR5973-3" value="- bpmnElement:" style="text;html=1;strokeColor=none;fillColor=none;align=left;verticalAlign=top;spacingLeft=4;spacingRight=4;whiteSpace=wrap;overflow=hidden;rotatable=0;points=[[0,0.5],[1,0.5]];portConstraint=eastwest;fontSize=11;" parent="EUPt2hbITshMY0ZR5973-1" vertex="1">
          <mxGeometry y="44" width="126" height="18" as="geometry" />
        </mxCell>
        <mxCell id="EUPt2hbITshMY0ZR5973-5" value="&lt;font style=&quot;font-size: 12px&quot;&gt;&lt;b&gt;BPMNProcess&lt;/b&gt;&lt;/font&gt;" style="swimlane;html=1;fontStyle=0;childLayout=stackLayout;horizontal=1;startSize=26;fillColor=#f5f5f5;horizontalStack=0;resizeParent=1;resizeLast=0;collapsible=1;marginBottom=0;swimlaneFillColor=#ffffff;rounded=0;shadow=0;comic=0;labelBackgroundColor=none;strokeWidth=1;fontFamily=Verdana;fontSize=10;align=center;strokeColor=#666666;fontColor=#333333;" parent="1" vertex="1">
          <mxGeometry x="-810" y="-782" width="120" height="72" as="geometry" />
        </mxCell>
        <mxCell id="a-3xQabaQIuShYP5bTJc-20" style="edgeStyle=none;rounded=0;orthogonalLoop=1;jettySize=auto;html=1;exitX=0;exitY=0.25;exitDx=0;exitDy=0;entryX=1;entryY=0.25;entryDx=0;entryDy=0;endArrow=blockThin;endFill=1;endSize=8;startArrow=diamond;startFill=1;startSize=10;" parent="1" source="a-3xQabaQIuShYP5bTJc-1" target="EUPt2hbITshMY0ZR5973-5" edge="1">
          <mxGeometry relative="1" as="geometry" />
        </mxCell>
        <mxCell id="a-3xQabaQIuShYP5bTJc-1" value="&lt;font style=&quot;font-size: 12px&quot;&gt;&lt;b&gt;BPMNTask&lt;/b&gt;&lt;/font&gt;" style="swimlane;html=1;fontStyle=0;childLayout=stackLayout;horizontal=1;startSize=26;fillColor=#f5f5f5;horizontalStack=0;resizeParent=1;resizeLast=0;collapsible=1;marginBottom=0;swimlaneFillColor=#ffffff;rounded=0;shadow=0;comic=0;labelBackgroundColor=none;strokeWidth=1;fontFamily=Verdana;fontSize=10;align=center;strokeColor=#666666;fontColor=#333333;" parent="1" vertex="1">
          <mxGeometry x="-584" y="-782" width="120" height="72" as="geometry" />
        </mxCell>
        <mxCell id="a-3xQabaQIuShYP5bTJc-9" value="" style="endArrow=block;endSize=12;endFill=0;html=1;rounded=0;" parent="1" source="EUPt2hbITshMY0ZR5973-5" target="EUPt2hbITshMY0ZR5973-1" edge="1">
          <mxGeometry width="160" relative="1" as="geometry">
            <mxPoint x="-810" y="-722" as="sourcePoint" />
            <mxPoint x="-630" y="-844" as="targetPoint" />
            <Array as="points">
              <mxPoint x="-750" y="-812" />
              <mxPoint x="-630" y="-812" />
            </Array>
          </mxGeometry>
        </mxCell>
        <mxCell id="a-3xQabaQIuShYP5bTJc-10" value="" style="endArrow=block;endSize=12;endFill=0;html=1;exitX=0.5;exitY=0;exitDx=0;exitDy=0;rounded=0;" parent="1" source="a-3xQabaQIuShYP5bTJc-1" target="EUPt2hbITshMY0ZR5973-1" edge="1">
          <mxGeometry width="160" relative="1" as="geometry">
            <mxPoint x="-795" y="-782" as="sourcePoint" />
            <mxPoint x="-630" y="-842" as="targetPoint" />
            <Array as="points">
              <mxPoint x="-524" y="-812" />
              <mxPoint x="-630" y="-812" />
            </Array>
          </mxGeometry>
        </mxCell>
        <mxCell id="a-3xQabaQIuShYP5bTJc-24" value="tasks" style="edgeLabel;resizable=0;html=1;align=left;verticalAlign=bottom;" parent="1" connectable="0" vertex="1">
          <mxGeometry x="-624" y="-772" as="geometry" />
        </mxCell>
        <mxCell id="2Fvzz2id7s37KU5COA_R-1" value="process" style="edgeLabel;resizable=0;html=1;align=left;verticalAlign=bottom;" connectable="0" vertex="1" parent="1">
          <mxGeometry x="-685" y="-772" as="geometry" />
        </mxCell>
        <mxCell id="2Fvzz2id7s37KU5COA_R-2" value="&lt;font style=&quot;font-size: 12px&quot;&gt;1&lt;/font&gt;" style="edgeLabel;resizable=0;html=1;align=left;verticalAlign=bottom;" connectable="0" vertex="1" parent="1">
          <mxGeometry x="-679" y="-741" as="geometry">
            <mxPoint x="-2" as="offset" />
          </mxGeometry>
        </mxCell>
        <mxCell id="2Fvzz2id7s37KU5COA_R-4" value="&lt;font style=&quot;font-size: 15px&quot;&gt;*&lt;/font&gt;" style="edgeLabel;resizable=0;html=1;align=left;verticalAlign=bottom;" connectable="0" vertex="1" parent="1">
          <mxGeometry x="-694" y="-719" as="geometry">
            <mxPoint x="92" y="-17" as="offset" />
          </mxGeometry>
        </mxCell>
        <mxCell id="2Fvzz2id7s37KU5COA_R-5" value="" style="whiteSpace=wrap;html=1;aspect=fixed;" vertex="1" parent="1">
          <mxGeometry x="-471" y="-880" width="40" height="40" as="geometry" />
        </mxCell>
        <mxCell id="2Fvzz2id7s37KU5COA_R-10" style="edgeStyle=orthogonalEdgeStyle;rounded=0;orthogonalLoop=1;jettySize=auto;html=1;exitX=0;exitY=0;exitDx=30;exitDy=0;exitPerimeter=0;entryX=0.5;entryY=1;entryDx=0;entryDy=0;entryPerimeter=0;startArrow=none;startFill=0;startSize=10;endArrow=open;endFill=0;" edge="1" parent="1" source="2Fvzz2id7s37KU5COA_R-6" target="2Fvzz2id7s37KU5COA_R-8">
          <mxGeometry relative="1" as="geometry" />
        </mxCell>
        <mxCell id="2Fvzz2id7s37KU5COA_R-6" value="" style="shape=note;whiteSpace=wrap;html=1;backgroundOutline=1;darkOpacity=0.05;size=21;" vertex="1" parent="1">
          <mxGeometry x="-355" y="-900" width="60" height="80" as="geometry" />
        </mxCell>
        <mxCell id="2Fvzz2id7s37KU5COA_R-7" value="Model.bpmn" style="text;html=1;strokeColor=none;fillColor=none;align=center;verticalAlign=middle;whiteSpace=wrap;rounded=0;" vertex="1" parent="1">
          <mxGeometry x="-370" y="-812" width="90" height="20" as="geometry" />
        </mxCell>
        <mxCell id="2Fvzz2id7s37KU5COA_R-8" value="" style="shape=note;whiteSpace=wrap;html=1;backgroundOutline=1;darkOpacity=0.05;size=20;" vertex="1" parent="1">
          <mxGeometry x="-355" y="-1040" width="60" height="80" as="geometry" />
        </mxCell>
        <mxCell id="2Fvzz2id7s37KU5COA_R-9" value="BPMN metamodel" style="text;html=1;strokeColor=none;fillColor=none;align=center;verticalAlign=middle;whiteSpace=wrap;rounded=0;" vertex="1" parent="1">
          <mxGeometry x="-370" y="-1070" width="90" height="20" as="geometry" />
        </mxCell>
        <mxCell id="2Fvzz2id7s37KU5COA_R-11" value="conforms to" style="text;html=1;strokeColor=none;fillColor=none;align=center;verticalAlign=middle;whiteSpace=wrap;rounded=0;" vertex="1" parent="1">
          <mxGeometry x="-332" y="-933" width="90" height="20" as="geometry" />
        </mxCell>
        <mxCell id="2Fvzz2id7s37KU5COA_R-12" value="bpmnModel" style="text;html=1;strokeColor=none;fillColor=none;align=center;verticalAlign=middle;whiteSpace=wrap;rounded=0;fontStyle=1" vertex="1" parent="1">
          <mxGeometry x="-453" y="-902" width="90" height="20" as="geometry" />
        </mxCell>
        <mxCell id="2Fvzz2id7s37KU5COA_R-13" style="edgeStyle=orthogonalEdgeStyle;rounded=0;orthogonalLoop=1;jettySize=auto;html=1;exitX=1;exitY=0.5;exitDx=0;exitDy=0;entryX=0;entryY=0.5;entryDx=0;entryDy=0;entryPerimeter=0;startArrow=none;startFill=0;startSize=10;endArrow=open;endFill=0;" edge="1" parent="1" source="2Fvzz2id7s37KU5COA_R-5" target="2Fvzz2id7s37KU5COA_R-6">
          <mxGeometry relative="1" as="geometry">
            <mxPoint x="-281" y="-890" as="sourcePoint" />
            <mxPoint x="-281" y="-950" as="targetPoint" />
          </mxGeometry>
        </mxCell>
        <mxCell id="2Fvzz2id7s37KU5COA_R-14" style="edgeStyle=orthogonalEdgeStyle;rounded=0;orthogonalLoop=1;jettySize=auto;html=1;entryX=0;entryY=0.5;entryDx=0;entryDy=0;startArrow=none;startFill=0;startSize=10;endArrow=open;endFill=0;" edge="1" parent="1" target="2Fvzz2id7s37KU5COA_R-5">
          <mxGeometry relative="1" as="geometry">
            <mxPoint x="-580" y="-860" as="sourcePoint" />
            <mxPoint x="-270" y="-850" as="targetPoint" />
            <Array as="points" />
          </mxGeometry>
        </mxCell>
        <mxCell id="2Fvzz2id7s37KU5COA_R-15" value="source" style="text;html=1;strokeColor=none;fillColor=none;align=center;verticalAlign=middle;whiteSpace=wrap;rounded=0;" vertex="1" parent="1">
          <mxGeometry x="-551" y="-880" width="80" height="20" as="geometry" />
        </mxCell>
      </root>
    </mxGraphModel>
  </diagram>
</mxfile>
